<?xml version="1.0" encoding="UTF-8"?>
<svg id="Layer_2" data-name="Layer 2" xmlns="http://www.w3.org/2000/svg" viewBox="0 0 912.74 386.77">
  <defs>
    <style>
      .cls-1 {
        stroke-width: 0px;
      }
    </style>
  </defs>
  <g id="Layer_1-2" data-name="Layer 1">
    <g>
      <path class="cls-1" d="M150.69,218.71c-2.44,9.83-8.16,32.85-14.78,46.1-8.25,16.92-21.69,27.02-35.95,27.02h-34.64c-2.28,0-3.24-.7-3.24-5.02V60.77c0-4.32.95-5.02,3.28-5.02l20.29-.4v-7.41h-2.12c-6.44,0-13.44.09-20.2.18-6.75.09-13.73.18-20.15.18-6.77,0-13.75-.09-20.5-.18-6.77-.09-13.76-.18-20.56-.18H0v7.41l20.69.4c2.22,0,3.59.84,3.59,5.02v226.04c0,4.18-1.37,5.02-3.63,5.02l-20.65.4v7.41h2.12c6.8,0,13.79-.09,20.56-.18,6.75-.09,13.73-.18,20.5-.18s30.75.09,54.27.18c23.53.09,47.85.18,54.29.18h2l4.89-84.23h-7.12l-.82,3.3Z"/>
      <path class="cls-1" d="M205.65,97.89c11.41,0,20.69-9.76,20.69-21.76s-9.28-21.76-20.69-21.76-20.33,9.56-20.33,21.76,8.93,21.76,20.33,21.76Z"/>
      <path class="cls-1" d="M224.2,287.16v-152.28l-2.6.6c-4.27.99-16.96,2.8-23.81,2.8h-24.26v7.03l12.83.43c2.22,0,3.59.84,3.59,5.02v136.41c0,4.18-1.38,5.02-3.67,5.02l-12.04.43v7.02h2.12c6.58,0,11.4-.09,16.06-.18,4.73-.09,9.63-.18,16.44-.18,6.4,0,10.29.09,14.06.18,3.79.09,7.7.18,14.15.18h2.12v-7.02l-11.76-.43c-2.28,0-3.24-.7-3.24-5.02Z"/>
      <path class="cls-1" d="M344.55,133.64c-14.94,0-27.41,7.1-37.16,21.14V44.54l-2.6.6c-4.8,1.11-17.37,2.8-23.8,2.8h-26.4v7.04l15.33.41c1.57,0,3.24.39,3.24,5.02v226.75c0,4.63-1.67,5.02-3.31,5.02l-12.76.42v7.03h23.9c6.45,0,19.01,1.7,23.8,2.8l2.6.6v-17.04c9.07,12.14,21.06,18.28,35.73,18.28,18.41,0,33.21-9.26,42.79-26.77,8.2-14.98,12.54-35.6,12.54-59.62s-4.13-43.7-11.95-58.14c-9.38-17.32-23.49-26.11-41.95-26.11ZM337.77,143.95c14.65,0,18.87,13.88,20.77,24.32,2.08,11.82,2.82,34.5,2.82,50.33s-1.21,39.42-3.53,51.01c-2.41,12.05-6.76,24.36-20.77,24.36s-23.53-11.85-29.66-22.37v-102.8c12.23-22.41,25.3-24.84,30.38-24.84Z"/>
      <path class="cls-1" d="M533.96,249.63c-10.46,27.26-22.68,45.42-48.37,45.42-19.7,0-26.39-19.5-28.62-31.1-1.95-11.04-2.78-25.62-2.82-50h86.05v-7.83c0-44.7-22.29-72.47-58.18-72.47-17.11,0-33.06,8.18-44.91,23.03-12.65,15.86-19.34,37.52-19.34,62.65,0,28.03,6.67,49.77,19.82,64.61,11.59,13.08,27.7,20,46.58,20,26.15,0,45.15-17.27,56.5-51.35l2.05-2.13-8.01-2.73-.73,1.91ZM504.18,206.49h-49.96c.4-11.43,1.16-26.76,3.1-37.08,4.13-19.8,11.52-29.02,23.28-29.02,12.59,0,19.75,9.06,22.54,28.5.98,8.56,1.05,27.1,1.05,37.6Z"/>
      <path class="cls-1" d="M643.77,134c-7.84,0-16.06,3.46-23.78,10.01-4.86,4.12-9.33,9.33-13.02,15.09v-24.22l-2.6.6c-4.27.99-16.97,2.8-23.81,2.8h-23.19v7.03l13.19.42c2.22,0,3.59.84,3.59,5.02v136.41c0,4.18-1.38,5.02-3.67,5.02l-12.4.43v7.03h2.12c6.58,0,11.31-.09,15.88-.18,4.64-.09,9.45-.18,16.26-.18,6.41,0,11.57.09,16.57.18,5.01.09,10.2.18,16.64.18h2.12v-7.05l-17.47-.41c-1.57,0-3.24-.39-3.24-5.02v-114.15c6.73-14.05,17.53-24.45,26.07-28.43-2.92,3.63-4.6,8.58-4.6,14.03,0,12.64,9.51,19.26,18.9,19.26,10.98,0,19.26-8.89,19.26-20.69,0-13.87-9.17-23.19-22.83-23.19Z"/>
      <path class="cls-1" d="M757.88,269.87c-3.89,8.65-11.24,18.75-19.13,18.75-10.06,0-11.45-8.59-11.45-17.88v-125h30.35v-7.45h-81.73v7.45h17.14v127.86c0,14.47,12.47,29.97,31.04,29.97s32.14-10.02,40.18-30.63l.67-1.7-6.11-3.5-.96,2.13Z"/>
      <path class="cls-1" d="M910.62,138.29c-2.02,0-4.34.07-7.02.14-3.56.1-7.6.21-12.26.21-5.28,0-9.31-.11-12.86-.2-2.9-.08-5.64-.15-8.56-.15h-2.12v7.03l12.83.43c2.18,0,3.76.64,4.71,1.91,1.25,1.68,1.4,4.54.41,7.84l-30.21,94.31-35.39-100.43c-.41-1.22-.38-2.42.08-3.06.1-.14.42-.58,1.53-.58l17.43-.4v-7.05h-2.12c-4.81,0-9.57.08-14.62.16-6,.1-12.2.2-19.66.2-6.34,0-12.5-.11-17.94-.2-4.71-.08-9.17-.16-13.13-.16h-2.12v7l10.33.45c2.71,0,3.7,1.41,5.15,5.39l53.68,148.59c-.56,1.81-1.21,3.9-1.92,6.21-4.64,15.05-12.62,40.88-17.83,54.46-.55-2.99-1.82-5.89-3.77-8.4-3.41-4.41-8.34-6.94-13.53-6.94-10.62,0-19.26,9.12-19.26,20.33,0,10.52,7.47,21.4,19.98,21.4,13.88,0,20.02-10.49,25.94-28.6l66.09-201.13c1.64-5.92,6.46-11.3,10.1-11.3l8.19-.48v-6.97h-2.12Z"/>
      <polygon class="cls-1" points="30.23 358.5 42.61 358.5 42.61 353.34 30.23 353.34 30.23 335.42 43.32 335.42 43.32 330.22 24.62 330.22 24.62 385.32 43.5 385.32 44.27 380.16 30.23 380.16 30.23 358.5"/>
      <path class="cls-1" d="M78.72,350.14c0,8.98.1,16.73.41,24.2h-.13c-.93-4.65-8.7-33.69-11.74-44.12h-6.73v55.1h5.34v-20.1c0-9.95-.16-18.88-.52-25.51h.08c1.09,4.58,9.04,34.92,12.08,45.61h6.51v-55.1h-5.31v19.92Z"/>
      <polygon class="cls-1" points="99.96 335.42 108.88 335.42 108.88 385.32 114.5 385.32 114.5 335.42 123.36 335.42 123.36 330.22 99.96 330.22 99.96 335.42"/>
      <polygon class="cls-1" points="144.55 358.5 156.93 358.5 156.93 353.34 144.55 353.34 144.55 335.42 157.64 335.42 157.64 330.22 138.94 330.22 138.94 385.32 157.82 385.32 158.59 380.16 144.55 380.16 144.55 358.5"/>
      <path class="cls-1" d="M196.05,368.32c0-7.36-1.61-10.02-5.13-11.3,3.06-1.07,5.61-4.22,5.61-11.61v-2.56c0-9.04-3.99-12.62-12.26-12.62h-9.43v55.1h5.62v-25.83h3.55c5.51,0,6.53,2.08,6.53,9.26,0,3.85-.12,13.13.58,16.57h5.48c-.63-3.49-.54-12.29-.54-17.01ZM190.87,345.67c0,5.88-1.35,9.03-6.65,9.03h-3.76v-19.7h3.4c5.59,0,7,3.05,7,8.16v2.5Z"/>
      <polygon class="cls-1" points="210.9 335.42 219.82 335.42 219.82 385.32 225.44 385.32 225.44 335.42 234.3 335.42 234.3 330.22 210.9 330.22 210.9 335.42"/>
      <path class="cls-1" d="M253.02,330.22l-9.07,55.1h5.68l2.7-17.85h9.36l2.9,17.85h5.88l-9.45-55.1h-8.01ZM253.11,362.31c1.52-10.25,3.52-22.7,3.72-26.93h.23c.52,5.12,1.91,14.54,3.9,26.93h-7.86Z"/>
      <rect class="cls-1" x="286.78" y="330.22" width="5.62" height="55.1"/>
      <path class="cls-1" d="M330.37,350.14c0,8.98.1,16.73.41,24.2h-.13c-.93-4.65-8.7-33.69-11.74-44.12h-6.73v55.1h5.34v-20.1c0-9.95-.16-18.88-.52-25.51h.08c1.09,4.58,9.04,34.92,12.08,45.61h6.51v-55.1h-5.31v19.92Z"/>
      <path class="cls-1" d="M371.48,374.3h-.08c-.74-6.95-4.49-27.57-7.59-44.08h-8.32v55.1h5.24v-21.77c0-9.44-.3-21.94-.46-28.33h.17c1.33,9.81,5.8,35.94,8.07,50.1h5.52c3-16.42,7.32-40.85,8.7-50.07h.08c-.17,5.85-.34,16.67-.34,26.84v23.23h5.46v-55.1h-8.16c-3.09,15.52-7.42,37.3-8.28,44.08Z"/>
      <polygon class="cls-1" points="413.28 358.5 425.66 358.5 425.66 353.34 413.28 353.34 413.28 335.42 426.37 335.42 426.37 330.22 407.67 330.22 407.67 385.32 426.55 385.32 427.32 380.16 413.28 380.16 413.28 358.5"/>
      <path class="cls-1" d="M461.77,350.14c0,8.98.1,16.73.41,24.2h-.13c-.93-4.65-8.7-33.69-11.74-44.12h-6.73v55.1h5.34v-20.1c0-9.95-.16-18.88-.52-25.51h.08c1.09,4.58,9.04,34.92,12.08,45.61h6.51v-55.1h-5.31v19.92Z"/>
      <polygon class="cls-1" points="483.01 335.42 491.93 335.42 491.93 385.32 497.55 385.32 497.55 335.42 506.41 335.42 506.41 330.22 483.01 330.22 483.01 335.42"/>
      <path class="cls-1" d="M554.36,360.2h6.24v8.85c0,7.16-.86,11.98-6.04,11.98-4.11,0-5.54-3.57-5.54-9.1v-28.42c0-6.44,1.98-8.89,5.88-8.89,5.19,0,5.65,4.55,5.65,8.49v1.47h5.62v-1.37c0-7.11-1.8-13.73-11.22-13.73-8,0-11.66,5.43-11.66,14.47v27.73c0,8.76,2.49,14.36,10.07,14.36,3.6,0,6.72-1.43,8.09-5.56.03,1.25.2,3.94.35,4.83h4.47v-30.05h-11.91v4.92Z"/>
      <path class="cls-1" d="M606.57,368.32c0-7.36-1.61-10.02-5.13-11.3,3.06-1.07,5.61-4.22,5.61-11.61v-2.56c0-9.04-3.99-12.62-12.26-12.62h-9.43v55.1h5.62v-25.83h3.55c5.51,0,6.53,2.08,6.53,9.26,0,3.85-.12,13.13.58,16.57h5.48c-.63-3.49-.54-12.29-.54-17.01ZM601.39,345.67c0,5.88-1.35,9.03-6.65,9.03h-3.76v-19.7h3.4c5.59,0,7,3.05,7,8.16v2.5Z"/>
      <path class="cls-1" d="M636.44,329.49c-7.75,0-11.91,4.93-11.91,14.18v28.01c0,8.9,3.03,14.37,11.53,14.37s12.05-4.84,12.05-14.44v-27.96c0-8.53-3.54-14.16-11.66-14.16ZM642.38,371.84c0,6.69-2.09,9.12-6.05,9.12s-6.06-2.5-6.06-8.84v-28.68c0-6.12,1.95-8.82,6.01-8.82s6.1,2.84,6.1,8.83v28.39Z"/>
      <path class="cls-1" d="M683.55,373.18c0,4.77-1.47,7.73-5.77,7.73s-5.84-3.17-5.84-7.78v-42.91h-5.62v42.89c0,8.7,3.81,12.94,11.33,12.94s11.55-4.58,11.55-13.08v-42.75h-5.66v42.96Z"/>
      <path class="cls-1" d="M718.55,330.22h-9.87v55.1h5.62v-24.46h3.86c9.98,0,12.38-6.12,12.38-14.33v-3.36c0-8.82-3.85-12.95-11.98-12.95ZM724.9,346.45c0,5.76-.91,9.66-7.24,9.66h-3.37v-21.1h3.85c5.76,0,6.76,3.96,6.76,8.46v2.98Z"/>
      <path class="cls-1" d="M690.94,102.29c.48.37,1.12.76,1.69.77,4.34.06,8.69.03,13.36.03-12.12-17.47-13.21-34.33-2.53-43.89,0,5.93-.54,11.4.12,16.73,1.28,10.37,7.59,18.32,13.98,26.08.7.78,2,1.06,3.04,1.07,6.51.09,13.03.11,19.54-.02,1.35-.04,2.33-.06,3.29-1.37,4.27-6.03,8.69-12.01,12.37-18.4,3.17-5.5,2.72-11.59.7-18.15-5.53,7.56-10.93,14.45-19.31,17.98-1.1.37-1.67.31-1.08-.72,1.77-2.87,3.35-5.88,5.35-8.57,2.02-2.7,4.61-4.97,6.68-7.64,4.94-6.36,6.51-13.58,4.21-21.31-1.94-6.52-6.02-11.7-11.83-16.88,1.01,11.55-3.33,19.63-10.98,26.47-4.97,4.44-7.54,10.19-6.47,17.18-2.29-6.15-3.8-12.31-1.31-18.73,1.31-3.38,2.71-6.73,4.2-10.05,6.52-14.57,1.71-26.77-7.95-37.89-1.51-1.74-3.55-3.01-5.94-5,3.07,10.51,1.46,19.31-5.06,26.8-5.38,6.18-11.68,11.58-16.87,17.9-4.48,5.46-9.16,11.27-11.65,17.74-4.82,12.49,1.8,31.66,12.45,39.85Z"/>
      <polygon class="cls-1" points="757.58 129.86 776.35 113.17 657.12 113.17 675.89 129.86 757.58 129.86"/>
    </g>
  </g>
</svg>