<?xml version="1.0" encoding="UTF-8"?>
<svg id="Layer_2" data-name="Layer 2" xmlns="http://www.w3.org/2000/svg" viewBox="0 0 431.53 431.53">
  <defs>
    <style>
      .cls-1 {
        fill: #fff;
        stroke-width: 0px;
      }
    </style>
  </defs>
  <g id="Layer_1-2" data-name="Layer 1">
    <g>
      <path class="cls-1" d="M294.58,328.23v-14.44h-158.33v14.44h33.2v78.62c14.86,3.6,30.36,5.52,46.31,5.52,6.75,0,13.43-.34,20.01-1.01v-83.13h58.8Z"/>
      <path class="cls-1" d="M165.34,244.06c.93.72,2.16,1.47,3.27,1.48,8.41.12,16.83.07,25.89.07-23.48-33.84-25.6-66.5-4.9-85.03,0,11.49-1.05,22.09.22,32.4,2.48,20.08,14.7,35.49,27.08,50.52,1.35,1.51,3.88,2.05,5.89,2.07,12.62.18,25.25.22,37.86-.03,2.62-.07,4.52-.11,6.37-2.66,8.27-11.69,16.83-23.26,23.95-35.64,6.13-10.65,5.27-22.45,1.35-35.16-10.7,14.65-21.17,28-37.41,34.84-2.12.72-3.23.59-2.09-1.4,3.42-5.56,6.48-11.38,10.37-16.59,3.9-5.23,8.93-9.62,12.94-14.79,9.56-12.33,12.61-26.31,8.16-41.29-3.75-12.64-11.66-22.66-22.91-32.7,1.95,22.38-6.45,38.03-21.26,51.29-9.62,8.61-14.6,19.73-12.53,33.29-4.44-11.92-7.36-23.86-2.54-36.28,2.55-6.55,5.26-13.05,8.13-19.46,12.63-28.22,3.31-51.85-15.4-73.41-2.92-3.37-6.88-5.84-11.51-9.68,5.95,20.37,2.83,37.4-9.8,51.91-10.42,11.97-22.62,22.43-32.67,34.68-8.68,10.57-17.74,21.83-22.58,34.36-9.34,24.2,3.48,61.33,24.12,77.2Z"/>
      <polygon class="cls-1" points="136.19 297.49 294.44 297.49 330.79 265.15 99.83 265.15 136.19 297.49"/>
      <path class="cls-1" d="M215.77,16.83C106.07,16.83,16.83,106.07,16.83,215.76c0,93.75,65.19,172.56,152.63,193.48,14.87,3.56,30.37,5.46,46.31,5.46,6.75,0,13.43-.34,20.01-1,100.33-10.07,178.93-94.99,178.93-197.94,0-109.69-89.24-198.94-198.94-198.94ZM215.77,413.54c-109.23,0-197.77-88.55-197.77-197.77S106.54,17.99,215.77,17.99s197.77,88.55,197.77,197.77-88.55,197.77-197.77,197.77Z"/>
      <path class="cls-1" d="M215.77,17.99C106.54,17.99,17.99,106.54,17.99,215.76s88.55,197.77,197.77,197.77,197.77-88.55,197.77-197.77S324.99,17.99,215.77,17.99ZM235.78,411.36c-6.58.67-13.26,1.01-20.01,1.01-15.95,0-31.45-1.92-46.31-5.52-86.14-20.88-150.3-98.62-150.3-191.09C19.16,107.35,107.35,19.16,215.77,19.16s196.61,88.2,196.61,196.61c0,101.66-77.55,185.54-176.6,195.6Z"/>
      <path class="cls-1" d="M215.77,0c-57.63,0-111.82,22.44-152.57,63.2C22.44,103.95,0,158.13,0,215.76s22.44,111.82,63.2,152.57c40.75,40.75,94.94,63.2,152.57,63.2s111.82-22.44,152.57-63.2c40.75-40.75,63.2-94.94,63.2-152.57s-22.44-111.82-63.2-152.57C327.58,22.44,273.4,0,215.77,0ZM215.77,424.55c-115.12,0-208.78-93.66-208.78-208.78S100.64,6.98,215.77,6.98s208.78,93.66,208.78,208.78-93.66,208.78-208.78,208.78Z"/>
    </g>
  </g>
</svg>